<svg xmlns="http://www.w3.org/2000/svg" viewBox="0 0 100 100"><style type="text/css">  
	.st0{fill:#212C62;}
	.st1{fill:#FFFFFF;}
	.st2{fill:#FAA41A;}
</style><path class="st0" d="M100 50c0 27.6-22.4 50-50 50S0 77.6 0 50 22.4 0 50 0 100 22.4 100 50L100 50z"/><path class="st1" d="M35.4 33v29.2h-6.3V37.2h-4.2V33H35.4L35.4 33zM20.8 33v29.2h-6.3V33H20.8L20.8 33z"/><path class="st2" d="M45.8 41.4v20.9h-6.3V41.4H45.8L45.8 41.4zM50 37.2H39.6V33H50c7 0 10.4 2.8 10.4 8.4 0 2.8-0.9 4.9-2.6 6.3 1.7 1.4 2.6 3.5 2.6 6.3 0 5.6-3.5 8.4-10.4 8.4v-4.2c2.8 0 4.2-1.4 4.2-4.2 0-2.8-1.4-4.2-4.2-4.2v-4.2c2.8 0 4.2-1.4 4.2-4.2C54.2 38.6 52.8 37.2 50 37.2L50 37.2z"/><path class="st2" d="M70.9 41.4v20.9h-6.3V41.4H70.9L70.9 41.4zM85.5 41.4c0 5.6-3.5 8.4-10.4 8.4v-4.2c2.8 0 4.2-1.4 4.2-4.2 0-2.8-1.4-4.2-4.2-4.2H64.6V33h10.4C82 33 85.5 35.8 85.5 41.4L85.5 41.4z"/><polygon class="st1" points="17.7 66 17.7 70 16.8 70 16.8 66.8 15.4 66.8 15.4 70 14.5 70 14.5 66 17.7 66 "/><path class="st1" d="M19.4 67.9c0.1 0 0.2 0 0.3 0 0.5 0 0.8-0.2 0.8-0.6 0-0.4-0.3-0.6-0.7-0.6 -0.2 0-0.3 0-0.4 0V67.9L19.4 67.9zM18.5 66.1c0.3 0 0.7-0.1 1.2-0.1 0.6 0 0.9 0.1 1.2 0.3 0.3 0.2 0.4 0.5 0.4 0.9 0 0.4-0.1 0.7-0.4 0.9 -0.3 0.3-0.8 0.4-1.3 0.4 -0.1 0-0.2 0-0.3 0V70h-0.9V66.1L18.5 66.1z"/><path class="st1" d="M22.7 66v1.2c0 0.6 0 1.3 0 1.8h0c0.2-0.5 0.5-1 0.7-1.4l0.9-1.6h0.9v4h-0.8v-1.2c0-0.6 0-1.2 0.1-1.7h0c-0.2 0.5-0.4 1-0.7 1.4L22.9 70h-1v-4H22.7L22.7 66z"/><path class="st1" d="M26.8 66v1.7h0.1L28 66h1.1l-1.4 1.8c0.5 0.1 0.7 0.5 0.9 1 0.1 0.4 0.3 0.9 0.5 1.2h-1c-0.1-0.3-0.2-0.6-0.3-0.9 -0.1-0.4-0.3-0.8-0.8-0.8h-0.2V70H26v-4H26.8L26.8 66z"/><path class="st1" d="M31.5 68.3l-0.2-0.8c-0.1-0.2-0.1-0.5-0.2-0.8h0c-0.1 0.2-0.1 0.5-0.2 0.8l-0.2 0.8H31.5L31.5 68.3zM30.5 69l-0.3 1h-0.9l1.2-4h1.2l1.2 4h-1l-0.3-1H30.5L30.5 69z"/><path class="st1" d="M34.3 67.9c0.1 0 0.2 0 0.3 0 0.5 0 0.8-0.2 0.8-0.6 0-0.4-0.3-0.6-0.7-0.6 -0.2 0-0.3 0-0.4 0V67.9L34.3 67.9zM33.4 66.1c0.3 0 0.7-0.1 1.2-0.1 0.6 0 0.9 0.1 1.2 0.3 0.3 0.2 0.4 0.5 0.4 0.9 0 0.4-0.1 0.7-0.4 0.9 -0.3 0.3-0.8 0.4-1.3 0.4 -0.1 0-0.2 0-0.3 0V70h-0.9V66.1L33.4 66.1z"/><polygon class="st1" points="40.1 66 40.1 70 39.2 70 39.2 66.8 37.8 66.8 37.8 70 36.9 70 36.9 66 40.1 66 "/><path class="st1" d="M42.8 68.3l-0.2-0.8c-0.1-0.2-0.1-0.5-0.2-0.8h0c-0.1 0.2-0.1 0.5-0.2 0.8l-0.2 0.8H42.8L42.8 68.3zM41.8 69l-0.3 1h-0.9l1.2-4h1.2l1.2 4h-1l-0.3-1H41.8L41.8 69z"/><polygon class="st1" points="45.1 66.8 44 66.8 44 66 47.1 66 47.1 66.8 46 66.8 46 70 45.1 70 45.1 66.8 "/><path class="st1" d="M48.4 69.3c0.1 0 0.2 0 0.3 0 0.4 0 0.8-0.2 0.8-0.6 0-0.4-0.4-0.6-0.8-0.6h-0.3V69.3L48.4 69.3zM48.4 67.6h0.3c0.5 0 0.7-0.2 0.7-0.5 0-0.3-0.2-0.5-0.6-0.5 -0.2 0-0.3 0-0.4 0V67.6L48.4 67.6zM47.5 66.1c0.2 0 0.7-0.1 1.2-0.1 0.5 0 0.9 0.1 1.2 0.2 0.3 0.1 0.5 0.4 0.5 0.8 0 0.3-0.2 0.7-0.7 0.8v0c0.5 0.1 0.8 0.5 0.8 1 0 0.4-0.2 0.6-0.4 0.8 -0.3 0.2-0.8 0.4-1.6 0.4 -0.4 0-0.8 0-1-0.1V66.1L47.5 66.1z"/><polygon class="st1" points="51.8 66.8 50.7 66.8 50.7 66 53.8 66 53.8 66.8 52.7 66.8 52.7 70 51.8 70 51.8 66.8 "/><path class="st1" d="M54.8 68c0 0.8 0.4 1.3 1 1.3 0.6 0 1-0.6 1-1.3 0-0.7-0.3-1.3-1-1.3C55.2 66.7 54.8 67.2 54.8 68L54.8 68zM57.7 68c0 1.3-0.8 2.1-1.9 2.1 -1.2 0-1.9-0.9-1.9-2 0-1.2 0.8-2.1 1.9-2.1C57 65.9 57.7 66.9 57.7 68L57.7 68z"/><path class="st1" d="M59.2 67.9c0.1 0 0.2 0 0.3 0 0.5 0 0.8-0.2 0.8-0.6 0-0.4-0.3-0.6-0.7-0.6 -0.2 0-0.3 0-0.4 0V67.9L59.2 67.9zM58.3 66.1c0.3 0 0.7-0.1 1.2-0.1 0.6 0 0.9 0.1 1.2 0.3 0.3 0.2 0.4 0.5 0.4 0.9 0 0.4-0.1 0.7-0.4 0.9 -0.3 0.3-0.8 0.4-1.3 0.4 -0.1 0-0.2 0-0.3 0V70h-0.9V66.1L58.3 66.1z"/><path class="st1" d="M62.6 67.9c0.1 0 0.2 0 0.3 0 0.5 0 0.8-0.2 0.8-0.6 0-0.4-0.3-0.6-0.7-0.6 -0.2 0-0.3 0-0.4 0V67.9L62.6 67.9zM61.7 66.1c0.3 0 0.7-0.1 1.2-0.1 0.6 0 0.9 0.1 1.2 0.3 0.3 0.2 0.4 0.5 0.4 0.9 0 0.4-0.1 0.7-0.4 0.9 -0.3 0.3-0.8 0.4-1.3 0.4 -0.1 0-0.2 0-0.3 0V70h-0.9V66.1L61.7 66.1z"/><polygon class="st1" points="67.5 68.3 66 68.3 66 69.2 67.7 69.2 67.7 70 65.1 70 65.1 66 67.6 66 67.6 66.8 66 66.8 66 67.6 67.5 67.6 67.5 68.3 "/><path class="st1" d="M71.2 69.9C71 70 70.6 70 70.2 70c-1.4 0-2.1-0.9-2.1-2 0-1.4 1-2.1 2.2-2.1 0.5 0 0.8 0.1 1 0.2L71 66.8c-0.2-0.1-0.4-0.1-0.8-0.1 -0.7 0-1.3 0.4-1.3 1.3 0 0.8 0.5 1.3 1.3 1.3 0.3 0 0.6-0.1 0.8-0.1L71.2 69.9 71.2 69.9z"/><path class="st1" d="M72.5 66l0.6 1.4c0.1 0.3 0.2 0.5 0.3 0.8h0c0-0.2 0.1-0.4 0.2-0.8L74 66H75l-0.7 2c-0.2 0.6-0.5 1.2-0.8 1.6 -0.3 0.3-0.6 0.5-1.1 0.5 -0.2 0-0.3 0-0.4-0.1l0.1-0.7c0.1 0 0.2 0 0.3 0 0.3 0 0.5-0.2 0.5-0.4 0-0.1 0-0.1 0-0.2L71.5 66H72.5L72.5 66z"/><path class="st1" d="M76.2 67.9c0.1 0 0.2 0 0.3 0 0.5 0 0.8-0.2 0.8-0.6 0-0.4-0.3-0.6-0.7-0.6 -0.2 0-0.3 0-0.4 0V67.9L76.2 67.9zM75.3 66.1c0.3 0 0.7-0.1 1.2-0.1 0.6 0 0.9 0.1 1.2 0.3 0.3 0.2 0.4 0.5 0.4 0.9 0 0.4-0.1 0.7-0.4 0.9 -0.3 0.3-0.8 0.4-1.3 0.4 -0.1 0-0.2 0-0.3 0V70h-0.9V66.1L75.3 66.1z"/><path class="st1" d="M81.6 69.9c-0.2 0.1-0.5 0.2-1 0.2 -1.4 0-2.1-0.9-2.1-2 0-1.4 1-2.1 2.2-2.1 0.5 0 0.8 0.1 1 0.2l-0.2 0.7c-0.2-0.1-0.4-0.1-0.8-0.1 -0.7 0-1.3 0.4-1.3 1.3 0 0.8 0.5 1.3 1.3 1.3 0.3 0 0.6-0.1 0.8-0.1L81.6 69.9 81.6 69.9z"/><path class="st1" d="M83 66v1.2c0 0.6 0 1.3 0 1.8h0c0.2-0.5 0.5-1 0.7-1.4l0.9-1.6h0.9v4h-0.8v-1.2c0-0.6 0-1.2 0.1-1.7h0c-0.2 0.5-0.4 1-0.7 1.4L83.2 70h-1v-4H83L83 66z"/></svg>